<svg width="18" height="20" viewBox="0 0 18 20" fill="none" xmlns="http://www.w3.org/2000/svg">
<path d="M15 14.125C14.24 14.125 13.56 14.425 13.04 14.895L5.91 10.745C5.96 10.515 6 10.285 6 10.045C6 9.80504 5.96 9.57504 5.91 9.34504L12.96 5.23504C13.5 5.73504 14.21 6.04504 15 6.04504C15.7956 6.04504 16.5587 5.72897 17.1213 5.16636C17.6839 4.60375 18 3.84069 18 3.04504C18 2.24939 17.6839 1.48633 17.1213 0.923724C16.5587 0.361115 15.7956 0.0450439 15 0.0450439C14.2044 0.0450439 13.4413 0.361115 12.8787 0.923724C12.3161 1.48633 12 2.24939 12 3.04504C12 3.28504 12.04 3.51504 12.09 3.74504L5.04 7.85504C4.5 7.35504 3.79 7.04504 3 7.04504C2.20435 7.04504 1.44129 7.36111 0.87868 7.92372C0.316071 8.48633 0 9.24939 0 10.045C0 10.8407 0.316071 11.6038 0.87868 12.1664C1.44129 12.729 2.20435 13.045 3 13.045C3.79 13.045 4.5 12.735 5.04 12.235L12.16 16.385C12.11 16.595 12.08 16.815 12.08 17.045C12.08 18.655 13.39 19.955 15 19.955C16.61 19.955 17.92 18.655 17.92 17.045C17.92 16.2706 17.6124 15.5279 17.0648 14.9803C16.5171 14.4327 15.7744 14.125 15 14.125Z" fill="#222222"/>
</svg>
